PathFileType	4	(X/Y/Z)	SUBJ94_1_walk_RCNL2025.trc
DataRate	CameraRate	NumFrames	NumMarkers	Units	OrigDataRate	OrigDataStartFrame	OrigNumFrames
100	100	11	25	mm	100	192	382
Frame#	Time	R_Shoulder			L_Shoulder			C7			J_Notch			R_Elbow			L_Elbow			R_Wrist			L_Wrist			R_Asis			L_Asis			Sacral			Thoracic			Sternum			R_Thigh_Lateral			R_Knee_Lateral			R_Shank_Lateral			R_Ankle_Lateral			R_Heel			R_Toe			L_Thigh_Lateral			L_Knee_Lateral			L_Shank_Lateral			L_Ankle_Lateral			L_Heel			L_Toe		
		X1	Y1	Z1	X2	Y2	Z2	X3	Y3	Z3	X4	Y4	Z4	X5	Y5	Z5	X6	Y6	Z6	X7	Y7	Z7	X8	Y8	Z8	X9	Y9	Z9	X10	Y10	Z10	X11	Y11	Z11	X12	Y12	Z12	X13	Y13	Z13	X14	Y14	Z14	X15	Y15	Z15	X16	Y16	Z16	X17	Y17	Z17	X18	Y18	Z18	X19	Y19	Z19	X20	Y20	Z20	X21	Y21	Z21	X22	Y22	Z22	X23	Y23	Z23	X24	Y24	Z24	X25	Y25	Z25
192	1.91000000	-490.620331	1264.419922	381.932892	-509.044098	1273.609497	2.272918	-561.635010	1349.556885	196.664459	-445.674438	1260.744995	185.613525	-518.002869	992.066345	486.316833	-588.730225	999.182739	-65.386574	-393.214523	804.047638	503.920776	-445.994553	815.394684	-85.945015	-446.458496	881.012512	314.763763	-437.560364	873.276245	90.011948	-631.496826	932.952942	182.399216	-624.956787	1147.375244	191.067001	-407.303436	1068.137329	194.416504	-518.336182	531.750305	370.636200	-526.660767	437.928131	310.688812	-543.893066	250.640396	341.175934	-563.337708	50.830109	253.071182	-608.881775	50.663891	205.953766	-430.531342	35.485767	222.196548	-393.327393	544.367920	-4.343318	-372.332306	455.074371	50.574947	-466.195435	307.786865	-5.193095	-590.418274	147.697037	99.325821	-624.448547	155.638596	153.138000	-493.615509	71.148094	110.981468
193	1.92000000	-479.295990	1264.483154	382.322418	-498.527313	1272.973389	2.737497	-550.653015	1349.215576	197.122131	-434.898956	1260.470215	186.089676	-502.601929	991.959900	487.270325	-580.889221	999.192810	-64.509201	-373.063065	806.876801	502.142838	-440.649902	813.597748	-86.228161	-436.463318	880.369019	315.926147	-426.806152	873.187195	91.452209	-621.054382	932.700745	182.664246	-614.261597	1147.187378	191.871338	-396.844849	1067.838257	195.206863	-512.724243	531.515747	370.912476	-522.929688	437.726837	310.860809	-541.795532	250.639801	341.077332	-563.154236	50.985424	252.801605	-608.614807	51.010624	205.636276	-430.404968	35.402206	222.238968	-377.880402	546.092285	-3.188073	-355.292267	457.085144	52.041737	-441.097839	303.925079	-3.539448	-558.215698	138.723358	101.025909	-592.534546	144.585632	155.066010	-457.203918	67.865364	112.094894
194	1.93000000	-467.925568	1264.303467	382.699341	-488.054230	1272.090820	3.159116	-539.605103	1348.662964	197.519135	-424.112152	1259.981934	186.583542	-487.177429	991.708191	488.227448	-572.941345	998.963928	-63.680363	-353.084351	809.622681	500.263000	-435.075439	811.714661	-86.555035	-426.437927	879.528442	317.067047	-415.997772	872.797974	92.839241	-610.608398	932.136780	182.829987	-603.554871	1146.784424	192.618225	-386.338287	1067.318481	196.020370	-507.042999	531.208313	371.193817	-519.059875	437.506958	311.035095	-539.846558	250.658035	341.021912	-562.975952	51.164783	252.525131	-608.347229	51.415657	205.307327	-430.279907	35.314854	222.275604	-362.974884	547.395081	-2.081948	-338.965210	458.648163	53.417114	-416.259003	299.916016	-1.960437	-525.315918	129.572571	102.718811	-559.758057	133.404587	157.016190	-420.330414	64.731789	113.100510
195	1.94000000	-456.494781	1263.876953	383.057800	-477.615997	1270.977905	3.541009	-528.491760	1347.916382	197.872696	-413.297028	1259.269165	187.085999	-471.716461	991.307495	489.186035	-564.872681	998.505127	-62.897602	-333.291229	812.263214	498.288376	-429.255249	809.753113	-86.922958	-416.388733	878.516602	318.160706	-405.133087	872.137390	94.130669	-600.152527	931.263428	182.907898	-592.834106	1146.176880	193.307755	-375.782135	1066.562744	196.838104	-501.286621	530.836853	371.483704	-515.045044	437.278351	311.213989	-538.059998	250.707626	341.017303	-562.801147	51.372601	252.240173	-608.079834	51.887386	204.968628	-430.152893	35.227692	222.300797	-348.645966	548.233337	-1.012906	-323.388336	459.728180	54.697723	-391.897034	295.906097	-0.502409	-491.744934	120.412552	104.363365	-526.119324	122.282425	158.935303	-383.065552	61.892380	114.003593
196	1.95000000	-444.989105	1263.206665	383.388702	-467.199738	1269.657349	3.886943	-517.319214	1346.994629	198.200714	-402.436005	1258.323975	187.584732	-456.212860	990.761902	490.136719	-556.673096	997.831055	-62.155304	-313.699615	814.779816	496.227020	-423.174286	807.726257	-87.327152	-406.318207	877.364319	319.182953	-394.205811	871.240112	95.294258	-589.675659	930.089355	182.907272	-582.095398	1145.380859	193.941635	-365.180206	1065.560181	197.643921	-495.439911	530.409241	371.786438	-510.870636	437.048523	311.399200	-536.384094	250.793442	341.057281	-562.625366	51.613808	251.944351	-607.805847	52.432682	204.625397	-430.023132	35.144016	222.313156	-334.929260	548.567627	0.031738	-308.598480	460.293854	55.884827	-368.197174	291.987640	0.793767	-457.545837	111.417107	105.927818	-491.659454	111.404037	160.773514	-345.499542	59.498180	114.808830
197	1.96000000	-433.395782	1262.303955	383.680725	-456.788605	1268.155518	4.200080	-506.096466	1345.914429	198.520172	-391.512665	1257.142822	188.065918	-440.667267	990.083130	491.065826	-548.331665	996.961243	-61.445896	-294.330017	817.156738	494.089233	-416.816177	805.651031	-87.761539	-396.220795	876.103333	320.113586	-383.205597	870.144104	96.309914	-579.162598	928.629517	182.836472	-571.334717	1144.415405	194.522507	-354.540192	1064.306030	198.422928	-489.476135	529.930542	372.103607	-506.511047	436.819000	311.589722	-534.722107	250.912308	341.124359	-562.443909	51.894299	251.634598	-607.513245	53.055889	204.282669	-429.892242	35.065109	222.314117	-321.859863	548.365173	1.059473	-294.623322	460.317291	56.981895	-345.279541	288.197266	1.900577	-422.788910	102.768723	107.387550	-456.481537	100.951180	162.487411	-307.740356	57.710430	115.530663
198	1.97000000	-421.705444	1261.188477	383.920502	-446.362091	1266.499634	4.481901	-494.832977	1344.686523	198.842529	-380.514160	1255.729004	188.516266	-425.086945	989.288696	491.958160	-539.836914	995.918091	-60.763412	-275.205994	819.382324	491.888138	-410.164230	803.544952	-88.220036	-386.085266	874.761658	320.938782	-372.120667	868.888123	97.169594	-568.595642	926.906067	182.702881	-560.548645	1143.300903	195.051651	-343.871338	1062.803711	199.161301	-483.354492	529.402710	372.432953	-501.928162	436.583862	311.782501	-532.959412	251.054123	341.194702	-562.252441	52.219990	251.308502	-607.190002	53.760334	203.939484	-429.761963	34.989517	222.306122	-309.471558	547.601990	2.067541	-281.471039	459.776581	57.993717	-323.194427	284.534546	2.807675	-387.583313	94.656456	108.721756	-420.753235	91.099709	164.038834	-269.927826	56.691746	116.205681
199	1.98000000	-409.913177	1259.887329	384.093079	-435.897888	1264.716309	4.731815	-483.534576	1343.315063	199.167755	-369.433319	1254.091431	188.924240	-409.485840	988.399780	492.798462	-531.178772	994.724487	-60.105270	-256.352737	821.449738	489.640152	-403.200867	801.424377	-88.698624	-375.897980	873.361084	321.653351	-360.940308	867.509521	97.876373	-557.958069	924.950378	182.511734	-549.733093	1142.057617	195.527222	-333.181274	1061.066528	199.846664	-477.021851	528.824463	372.769073	-497.073730	436.331940	311.974335	-530.988953	251.205200	341.245087	-562.047119	52.595886	250.966446	-606.831238	54.551678	203.585342	-429.629547	34.914082	222.293686	-297.794373	546.265015	3.040855	-269.121521	458.660980	58.928051	-301.931335	280.989319	3.522483	-352.091187	87.265434	109.910805	-384.704407	82.016197	165.390976	-232.253220	56.585674	116.891327
200	1.99000000	-398.019897	1258.432739	384.184326	-425.373199	1262.830566	4.947778	-472.200928	1341.804077	199.482864	-358.268280	1252.246582	189.279907	-393.883545	987.439270	493.572235	-522.349121	993.401428	-59.471008	-237.795853	823.355316	487.363968	-395.907730	799.303833	-89.194290	-365.645386	871.917664	322.261658	-349.656921	866.040894	98.443733	-547.235107	922.804382	182.264374	-538.880432	1140.706299	195.945267	-322.473145	1059.117432	200.468338	-470.421356	528.192078	373.104828	-491.897339	436.049469	312.161255	-528.729431	251.353516	341.259644	-561.824036	53.026852	250.612579	-606.441101	55.437729	203.200760	-429.485992	34.835758	222.285156	-286.850403	544.354736	3.953549	-257.521606	456.979858	59.799152	-281.421356	277.563477	4.075068	-316.541046	80.761665	110.935799	-348.628235	73.851807	166.508011	-194.969788	57.491116	117.650528
201	2.00000000	-386.032684	1256.859375	384.184845	-414.764496	1260.867798	5.126796	-460.829987	1340.165894	199.769821	-347.019745	1250.219238	189.574799	-378.306763	986.429321	494.265472	-513.340088	991.967651	-58.861225	-219.560867	825.096771	485.078812	-388.267319	797.195007	-89.702915	-355.313812	870.443481	322.775665	-338.267181	864.507996	98.893837	-536.413940	920.520020	181.957596	-527.979431	1139.269165	196.302246	-311.744049	1056.988403	201.017838	-463.505920	527.500122	373.433838	-486.355103	435.722748	312.337921	-526.132507	251.493347	341.234741	-561.578125	53.520065	250.254547	-606.027161	56.426205	202.765198	-429.320923	34.752876	222.289505	-276.646210	541.888977	4.773168	-246.583450	454.774567	60.629509	-261.543060	274.285339	4.519242	-281.235321	75.278076	111.781990	-312.881104	66.731194	167.360443	-158.391586	59.436928	118.538147
202	2.01000000	-373.964020	1255.203613	384.091370	-404.048889	1258.853149	5.264177	-449.423737	1338.427124	200.016190	-335.687897	1248.044556	189.801575	-362.791992	985.391785	494.865662	-504.140808	990.441162	-58.278358	-201.673843	826.674164	482.804565	-380.264542	795.106720	-90.218895	-344.888000	868.949036	323.211273	-326.771912	862.929993	99.253876	-525.482727	918.157227	181.584793	-517.017944	1137.769165	196.596069	-300.984100	1054.720459	201.488419	-456.248688	526.745544	373.754486	-480.415710	435.340973	312.500458	-523.182068	251.627655	341.178528	-561.301514	54.087395	249.903351	-605.589905	57.529430	202.278519	-429.129852	34.666225	222.311768	-267.162903	538.907349	5.468344	-236.188324	452.129486	61.447956	-242.155380	271.219025	4.914324	-246.550247	70.901009	112.444855	-277.877686	60.736919	167.933563	-122.887016	62.363277	119.595192
